/* XPM */
static char *_e217cb738474307d8c2e828c997c205XhHBhzZVZN72ylX0[] = {
/* columns rows colors chars-per-pixel */
"64 64 228 2 ",
"   c None",
".  c #1C1C1D",
"X  c #17181A",
"o  c #221F1C",
"O  c #23211E",
"+  c #2D231C",
"@  c #33281E",
"#  c #37281E",
"$  c #1D1E20",
"%  c #1F2021",
"&  c #242424",
"*  c #2A2622",
"=  c #262826",
"-  c #2B2A26",
";  c #262728",
":  c #262829",
">  c #2B2C2C",
",  c #332C24",
"<  c #322F2A",
"1  c #3C2E22",
"2  c #3B3125",
"3  c #34322C",
"4  c #3B352B",
"5  c #3C392C",
"6  c #343327",
"7  c #2F2F30",
"8  c #343333",
"9  c #393632",
"0  c #3B3A34",
"q  c #363738",
"w  c #393939",
"e  c #303030",
"r  c #442D1E",
"t  c #4C321E",
"y  c #56371E",
"u  c #623B1F",
"i  c #443323",
"p  c #4B3423",
"a  c #433B2D",
"s  c #4A3D2C",
"d  c #483827",
"f  c #543B24",
"g  c #5C3B22",
"h  c #523925",
"j  c #433D33",
"k  c #453E36",
"l  c #422D20",
"z  c #3F4233",
"x  c #4A412E",
"c  c #55422B",
"v  c #5B4329",
"b  c #454234",
"n  c #4C4433",
"m  c #42423B",
"M  c #4A453A",
"N  c #4D4A3B",
"B  c #4E4832",
"V  c #534534",
"C  c #544B35",
"Z  c #5B4B34",
"A  c #534B3B",
"S  c #594937",
"D  c #5B543C",
"F  c #585239",
"G  c #674929",
"H  c #6C522D",
"J  c #73522D",
"K  c #644E34",
"L  c #64543B",
"P  c #635A3D",
"I  c #6A5B3C",
"U  c #695335",
"Y  c #725633",
"T  c #735B36",
"R  c #7C5C34",
"E  c #735D3B",
"W  c #795D3A",
"Q  c #714F28",
"!  c #72623E",
"~  c #7E633C",
"^  c #6D623F",
"/  c #524E41",
"(  c #545243",
")  c #5F5C42",
"_  c #5C5946",
"`  c #4C4C40",
"'  c #635C43",
"]  c #625E49",
"[  c #69654A",
"{  c #6A6547",
"}  c #726342",
"|  c #7D6B42",
" . c #756C49",
".. c #7D734C",
"X. c #78704A",
"o. c #726E51",
"O. c #7B7652",
"+. c #797554",
"@. c #6F6C51",
"#. c #8B612C",
"$. c #83643B",
"%. c #866B3E",
"&. c #896638",
"*. c #926A33",
"=. c #926837",
"-. c #99723C",
";. c #91662E",
":. c #A77736",
">. c #895D29",
",. c #876E42",
"<. c #8B7343",
"1. c #82754B",
"2. c #897647",
"3. c #937342",
"4. c #987B46",
"5. c #847C55",
"6. c #A67B42",
"7. c #BD873B",
"8. c #C58534",
"9. c #CA8936",
"0. c #CB8D3B",
"q. c #C68937",
"w. c #D08E3C",
"e. c #CC923E",
"r. c #D3923E",
"t. c #9A844C",
"y. c #8B855D",
"u. c #898256",
"i. c #938C5D",
"p. c #988A55",
"a. c #928B5A",
"s. c #AB8B4C",
"d. c #A6864A",
"f. c #B78A46",
"g. c #BB944C",
"h. c #AA8E51",
"j. c #A59256",
"k. c #A79559",
"l. c #B69C5A",
"z. c #B69753",
"x. c #938D61",
"c. c #969263",
"v. c #AA9D61",
"b. c #BAAA68",
"n. c #B8AF6E",
"m. c #B5A05D",
"M. c #CB8F40",
"N. c #C59345",
"B. c #CD9443",
"V. c #CF9945",
"C. c #CB9A4B",
"Z. c #C7974A",
"A. c #D39543",
"S. c #D39A46",
"D. c #DA9C46",
"F. c #D49C4A",
"G. c #D99E4B",
"H. c #CD9E50",
"J. c #D5A24D",
"K. c #DCA24C",
"L. c #DBA94E",
"P. c #DDA147",
"I. c #C9A458",
"U. c #D4A451",
"Y. c #DCA552",
"T. c #DCAA53",
"R. c #DCAD59",
"E. c #D5AA58",
"W. c #DEB25C",
"Q. c #DFB155",
"!. c #E3A44C",
"~. c #E7A84E",
"^. c #E1A652",
"/. c #E3AA55",
"(. c #E9AD53",
"). c #E4AD5A",
"_. c #E8AF59",
"`. c #ECB157",
"'. c #E3B45C",
"]. c #EBB35B",
"[. c #E4BB5D",
"{. c #ECBC5D",
"}. c #E3B356",
"|. c #F1B559",
" X c #F3B95D",
".X c #F0B357",
"XX c #C6AD61",
"oX c #C8AD63",
"OX c #C8B267",
"+X c #D7B664",
"@X c #E3B662",
"#X c #EBB661",
"$X c #E3BB63",
"%X c #EDBA63",
"&X c #E4BE69",
"*X c #EDBD6A",
"=X c #F2BC64",
"-X c #F3BF68",
";X c #E0AF61",
":X c #ECC05D",
">X c #D1C275",
",X c #E6C166",
"<X c #EAC365",
"1X c #E6C26A",
"2X c #EAC56B",
"3X c #EDCA6D",
"4X c #EBC867",
"5X c #F3C265",
"6X c #F4C26B",
"7X c #F0CE6C",
"8X c #F1D16F",
"9X c #EDCD73",
"0X c #E8C573",
"qX c #F3C874",
"wX c #EFD27B",
"eX c #EFD075",
"rX c #F2D274",
"tX c #F2D47B",
"yX c #F6DA7C",
"uX c #F9DD7C",
"iX c #FBE17F",
"pX c #F6DC83",
"aX c #F8DE82",
"sX c #F6DF89",
"dX c #F9E285",
"fX c #F9E48C",
"gX c #F8E58B",
"hX c #FBEC98",
/* pixels */
"                                                                                                                                ",
"                                                      :.=.&.$.R R $.&.-.6.                                                      ",
"                                              =.H c i < - - > = = = - , 4 i Z R 4.                                              ",
"                                        =.H d > 3 w / [ 9 > > > > > > 3 I V s > , s T 6.                                        ",
"                                    &.f 3 > N ] O.u.u.j.M : : : = > : 4 %.$.T U c 4 : 3 Z 4.                                    ",
"                                =.c - > [ _ { o.o._ M j j b V Z Z V k a 4 j B K Y s 4 U , > Z d.                                ",
"                              G 3 8 ( 9 [ O.0 N V T -.g.N.R.L.'.^.T.Y.N.N.-.W n j 4 v K a K 3 4 W                               ",
"                          =.d 9 M y.O.o.w A R s.L.3X:XiXrXaXrXtXrXrX9X3X2X}.}.S.f.$.n < V K Y Z > n s.                          ",
"                        R 4 k o.u.+.( C =.I.:XiXyXgXtXpXdXrXrXtXeX3X<X9X1X1X1X,X[.P.H.3.n 4 U R E j 5 2.                        ",
"                      J < 9 y.x.@.N ~ I.5XgXiXiXdXdXpXpX9X8X3XwX9X2X<X$X3X,X1X+X}.W.'.D.F.%.9 k %.$.= - ,.                      ",
"                    H > 8 8 ( ( C f.:XgXdXgXuXyXtXyXdXrX7X4X4X9X0X,X[.[.[.1X1XW.T.L.W.+XT.A.g.F 4 5 = = : |                     ",
"                  J < 8 8 8 8 E J.iXiXdXdXgXgXyXrXrX8X3X7X7X9X3X4X3X:X[.[.}.Q.L.T.@X@XY.J.T.S.B.~ > & > = = X.                  ",
"                R 3 8 w 8 9 $.&XuXgXdXuXyXdXaXrX8Xh...1.5.u.1X,X,XOXu.....~ s.L.L.R.+XJ.V.J.J.S.S.3.e & = & > 4.                ",
"              =.4 8 9 8 0 3.{.uXgXiXuXuXdXyXrXrX7X! : e 8 w XXW.{.m.8 8 e > <.Q.J.J.L.L.e.e.e.V.B.A.4.> & = & 3 j.              ",
"              s 9 w 8 w &.{.hXfXdXdXiXdXyX9XrX8XrX} > 8 8 w OX[.}.m.0 8 8 e <.W.J.r.V.L.L.J.V.V.F.C.0.4.> & 3 d n oX            ",
"            K 8 +.y.w E ,XiXfXdXdXaXpXtXrX8X9XtX3X! > 8 8 m XX}.}.m.q 8 8 > %.L.E.J.e.e.V.V.V.e.B.B.B.V.| ; Y R , !             ",
"          =.3 ( x.@.S J.yXhXfXfXaXpXpXpXwXwXrX2X<X! > 8 8 m XXQ.Q.m.q 8 8 e %.S.C.T.U.J.F.F.F.A.B.F.E.M.Z.L 4 Y G < k.          ",
"          c M 5.o.M f.dXdXiXfXsXpXpXpXtXrXwX9X9X4X! > 8 8 m oX}.}.m.0 8 3 e %.T.J.J.C.F.F.C.B.B.B.F.0.B.A.g.4 v v 3 C           ",
"        &.7 ] 5._ ,.:XpXdXaXaXaXpXpXrX9X3X3X2X1X,X! > 8 8 z u.p.p.u.q 8 8 > %.J.S.V.B.M.0.B.A.Z.F.B.M.A.F.A.4.- J c > t.        ",
"        s ` 5.o.S U.dXdXaXyXtXtXeXeXrX9X3X2X2X1X4X^ e 8 8 q q q q q q 8 8 > 2.J.V.V.M.M.M.B.M.M.M.B.B.A.V.F.Z.` p g & C         ",
"      =.9 ` ( / 3.:XaXaXyXyXtXrX9X9X9X9X9X9X2X$Xt.b e 8 8 w w w w w 8 9 8 7 D Z.V.V.F.V.V.M.M.M.M.M.A.A.V.F.F.6., 6 - , k.      ",
"      G k x.+.A U.dXgXyXyXtXtXwX9X9X3X2X1X2XW.T > > e 8 8 8 w w w q q 8 8 e > a :.S.B.0.M.B.B.A.A.A.A.D.F.R.G.C.b r G , ^       ",
"      s q / _ ,.{.dXgXyXtXtXwXeXwX9X9X1X:XU.K = > e 8 8 8 8 8 w q 8 8 8 e e > : 4 :.8.8.B.V.A.F.G.G.G.G.G.^.;XG.2.@ , @ b OX    ",
"    &.9 ( @./ f.yXtXrXrX9X3X4X4X,X,X:X,X+XY & : : 7 7 8 q A { O...[ M 8 8 e e > : d 7.F.B.0.w.0.0.M.M.A.A.A.G.G.g.6 i t @ p.    ",
"    Y w +.5.' E.tXtXtXrX9X9X9X3X4X1X,X}.-.& = = > < e m t.I.J.J.H.H.g.2.z > > > : & H 9.9.w.A.F.F.G.G.G.G.K.Y.Y.E.F @ y @  .    ",
"    c m y.@.$.*XpXeXrXqX3X3X1X,X,X,X1XU.i & = > > > b z.L.V.e.e.0.0.q.e.t.8 6 > - & - :.D.G.A.D.A.D.G.D.G.G.K./.P.2.@ g 2 C     ",
"    j @.y._ :.%XtX3X4X<X,X:X:X[.:XW.Q.*.% & & > > 3 t.D.e.e.e.e.9.9.q.8.q.~ > > : ; & Q A.0.w.M.A.A.A.A.A.D.D.^.K.h.O c d 5 OX  ",
"  -.9 o.x.( Z.tXpXwX3X4X2X1X,X$X$XW.L.v & & & > > F V.J.S.e.e.9.q.8.8.0.e.f.z > : & & 1 q.F.D.F.F.D.G.G.G.^.;X&X).I.6 c R 6 v.  ",
"  =.q y.y.A S.3XwX9XwX1X1X,X,X$XW.+XN.@ & & & > > <.L.Q.S.0.e.9.9.8.8.0.U.V.P = - ; & O :.G.G.G.G.G.G.^.^.@X).'.).E.5 c Z @ p.  ",
"  $.8 k m D R.eX9X0X9X9X1X,X$X@X[.[.:.O O & & > e ~ h.s.s.s.h.j.h.s.s.d.d.s.F > : ; & . >.G.G.K.^.^.Y.^.@X_.)._.}.Q.C X . . u.  ",
"  R 8 w q U K.2X,X2X,X1X0X$X+X@XW.'.;.. % & & > > e e 8 8 q w z w w q q 8 8 3 > - ; % $ Q K.Y.Y.Y.^.^.@X).^.^.~.^.K.D X . . 1.  ",
"  R 8 w q I '.3X[.[.'.Q.W.$X$X'.+X'.#.. & & & > > e e 8 8 0 q w w w q 8 e 3 > > : & & . G !.Y.^.^./.).^.P.!.!.^.'.{.^ X . . ..  ",
"  W 8 q 8 I K.1X:XW.W.R.W.[.W.W.R.).#.. & & & > > > 7 8 8 8 q q w q q 8 8 > > > & & & . v P.Y./././.).Y.!.!.^.(.).G.^ X . X ..  ",
"  R 8 q 8 I ^.1XW.[.W.@X&XW.W.R.T.T.;.. O & & > > 5 M n N / / ( ( ( / N M M b j 5 4 2 , Q P./.T./.)._.&X_.).(./.#X#XD X . . 5.  ",
"  &.8 q q L G.$X,X,X$X&XW.R.E.L.T.T.:.. & & & > > ,.I.N.N.N.Z.C.C.Z.C.V.C.U.N.V.M.M.C.q.0.!.^.^././._._.*X#X#X#X_.T.F X . . 2.  ",
"  =.9 q q A B.*X1XW.1XW.R.T.E.L.J.J.7.@ . & & > > I B.F.0.q.9.9.0.0.0.A.R.S.r.r.F.).K.Y.Y.^./.)./._._._.#X-X$X*X*X@Xb + @ O p.  ",
"  4.4 ' 2.M Z.@X0X,XR.E.T.L.L.J.J.H.e.f % & & > > w f.e.e.9.0.9.w.0.w.S.G.A.A.A.P./.K.).^.^././._._._.].].].6XqX}.E.6 f G @ v.  ",
"  f.a L 2.k 6./.W.U.P.J.S.V.V.e.e.0.e.#.O & : > > > P N.9.0.0.A.F.D.S.F.D.G.P.S.S./.@X^.^.!.!.!.^.^.(.(.(.(._.=X%Xm.O y y 6 n.  ",
"    V M | V %.L.W.L.L.J.J.J.J.F.V.e.J.8.2 & = > > e e } Z.r.w.F.G.G.G.K.!.).g.Z 4.$X/./._.'._._.].].].].#X#X#X=X`.u.+ t r B     ",
"    Y k | I I V.W.Q.E.U.U.J.F.C.S.V.e.8.;.= & > > > e 8 D p.Z.F.F.G.J.C.s.' 9 : i f.!.!.!.).'.].].#X#X#X=X=X=X6X[.D + u +  .    ",
"    3.8 L U A N.Y.J.S.S.V.e.0.0.0.q.q.M.V.H & > > < 7 8 8 q ` [  .@.' M 8 > > > ; G T.@X]././.(.(._._..X.X.X X].W.6 t t O p.    ",
"    f.k S I 9 3.A.@XE.U.J.F.F.V.V.V.N.B.8.8.K ; > 7 7 8 q 8 q q q q 8 8 8 7 7 > > & ;.~.].#X#X=X=X=X=X-X-XqXtX].p.. @ + 2 n.    ",
"      U q k S L F.U.E.F.S.B.B.B.0.e.N.M.B.A.V.R 3 > > 8 8 8 w w w w q 8 8 7 < : - s f.].].].#X].=X X=X-X-XqX@X&XF @ r . P       ",
"      4.9 Y Y 9 6.M.F.A.V.B.M.0.e.e.B.F.F.J.S.S.d.b 8 8 8 q w w w q 8 8 8 7 7 n 3.U.%X*X=X].=X=X=X=X-X-X-X6X].l.% @ y @ c.      ",
"        V 8 9 S _ A.A.A.M.M.M.M.M.M.F.B.B.A.A.F.K.! > 8 q q w w w q 8 8 8 7 E U.].].].].#X=X X#X=X=X-X-X5X_.&XD + # . B         ",
"        3.< V T k 6.0.H.M.M.M.F.F.F.A.M.A.A.A.A.F.E 7 8 8 k p.j.k.5.w 8 8 7 <.]._.].].].].%X-X6X5X-X6X5XqX].p.O r t @ u.        ",
"          A 9 &.K S N.q.q.q.F.A.B.V.F.F.J.F.F.G.K.E 7 8 8 k I.K.~.l.w 8 8 > <.|.].#X%X%X-X=X=X6X6X6X=X=X^.+Xb @ y # B           ",
"          4.9 V } S } M.F.R.F.Z.F.G.G.G.J.G.Y.F.D.' > 8 8 m I.P.!.z.9 8 7 > <..X].%X-X-X-X6X6X6X6XqXqX=X$X{ . t t @ c.          ",
"            I j $.W j 4.w.A.V.A.A.F.F.F.M.A.D.Y.K.E 7 7 8 k I.G.~.l.q 8 9 e <.].-X|.|.|.=X-X-X6X-X-X#XY.p.& t u @ )             ",
"            z.b V 3.n w d.A.H.F.A.D.F.G.D.r.A.D.).} 7 7 8 m I.!.~.l.q 8 8 > <.5X|..X|.-X6X5X-X=X=X#X#Xv.e . r # 0 n.            ",
"              4.9 9 8 > k s.M.G.A.M.M.A.^.G.A.A.K.E 7 7 7 w I.~.~.l.8 8 7 > <.|..X.X-X6X X X|.].*X).l.3 . . . = c.              ",
"                ,.7 e 8 7 k h.A.A.G.A.A.D.^.^.D.P.<.S ( _ { oX~.(.I.' _ D A d.|. X-X6X X X X=X'.Y.m.3 $ & % O O.                ",
"                  } 7 8 7 7 j 4.G.F.G.D.G.;X).G.D.K.Y.T./.W.$X`.].&X].].].'.].|.=X6XqX-X X&X^.$Xp.> . % & . [                   ",
"                    } 7 7 7 7 7 | Z.K.G.^.).D.D.^._./.!.~.~.(.#X#X]._.].].=X=X=X X X6X-X).#XE.o.= O & % % '                     ",
"                      } 7 7 9 } j A h.F./.Y.^.^.).'.#X#X^.~.(.#X=X]..X.X-X6X6X6X-X5X].%XE.k.M & i p O O {                       ",
"                        ,.7 j 3.W V j ' z.G./.G.'.#X^.#X#X(.].=X=X].|.5X6X=XqX6X^.#X).m.{ * @ g y h = O.                        ",
"                          t.k j K W U s 9 ' h.H.'.!.'./.#X#X#X-X%X*X#X6X].6X/.%XE.k.) > # h g p 1 5 c.                          ",
"                            l.' 8 V Z K j h e ` } t.I.U.@X).'.]./.5X/.1XE.oXj.{ b = 2 , 2 p 2 = ) n.                            ",
"                                p.N 4 a a J a h d < 9 M ( }  .1...X.{ D m 3 < 1 p 2 p g & O B x.                                ",
"                                  OX2.N 4 a > h G v g h d : : & & ; & < Z v G v p i * 6 b u.>X                                  ",
"                                        p.P j > i 2 g G G > > > > > = 3 R G i i , 5 D c.                                        ",
"                                            b.p.{ A j 9 4 = & ; & = = = 6 5 N { i.n.                                            ",
"                                                    b.k.a.5...X.X...5.i.k.n.                                                    ",
"                                                                                                                                "
};
