/* XPM */
static char *c27674c1184f4329b186b3ee9b2ff235vJ55ZL2eQMEkF03z[] = {
/* columns rows colors chars-per-pixel */
"16 16 189 2 ",
"   c None",
".  c #262625",
"X  c #272625",
"o  c #2E2A26",
"O  c #3B3328",
"+  c #3D362B",
"@  c #3F3B2C",
"#  c #3F3A32",
"$  c #3F3B32",
"%  c #453A2D",
"&  c #453B2E",
"*  c #433E2E",
"=  c #473E2E",
"-  c #4E3F2B",
";  c #443E33",
":  c #403D34",
">  c #49402F",
",  c #4D402D",
"<  c #5A492F",
"1  c #5B4A2F",
"2  c #4C4230",
"3  c #4D4336",
"4  c #494637",
"5  c #4C4737",
"6  c #45423A",
"7  c #49453A",
"8  c #4B463B",
"9  c #4F483C",
"0  c #504431",
"q  c #534732",
"w  c #574931",
"e  c #574A30",
"r  c #544835",
"t  c #574A34",
"y  c #5B4A33",
"u  c #5D4B32",
"i  c #5A4E33",
"p  c #5A4B34",
"a  c #5C4F36",
"s  c #5E4F36",
"d  c #544939",
"f  c #544A38",
"g  c #544B3B",
"h  c #5A4F3B",
"j  c #5C4E38",
"k  c #5C4F38",
"l  c #5E4F38",
"z  c #5F5238",
"x  c #5E5339",
"c  c #5A513C",
"v  c #605035",
"b  c #645134",
"n  c #60523A",
"m  c #62523A",
"M  c #635438",
"N  c #675438",
"B  c #63573F",
"V  c #69573A",
"C  c #66583F",
"Z  c #6C583A",
"A  c #6D5B3B",
"S  c #6D5C3E",
"D  c #7F6439",
"F  c #7A613D",
"G  c #7B653F",
"H  c #7D653E",
"J  c #625740",
"K  c #625941",
"L  c #675A40",
"P  c #645B42",
"I  c #6C6042",
"U  c #6D6142",
"Y  c #716547",
"T  c #866638",
"R  c #82683C",
"E  c #85693D",
"W  c #86693D",
"Q  c #906E3B",
"!  c #97703A",
"~  c #99733F",
"^  c #98743D",
"/  c #9A773D",
"(  c #A3783A",
")  c #866A40",
"_  c #856E42",
"`  c #8B6D40",
"'  c #886F41",
"]  c #8D7040",
"[  c #8E7241",
"{  c #897045",
"}  c #8C7244",
"|  c #8E7345",
" . c #897A4D",
".. c #957340",
"X. c #9B7742",
"o. c #9E7E43",
"O. c #987A47",
"+. c #9A7B47",
"@. c #9E7B44",
"#. c #937748",
"$. c #907848",
"%. c #947A49",
"&. c #967A48",
"*. c #937D4C",
"=. c #907E4E",
"-. c #997B49",
";. c #997E4B",
":. c #A27A42",
">. c #B5843C",
",. c #B8863D",
"<. c #96814E",
"1. c #978353",
"2. c #9C8350",
"3. c #9A8651",
"4. c #AC8243",
"5. c #A48A4F",
"6. c #B78640",
"7. c #B78642",
"8. c #BE8F43",
"9. c #AD8D51",
"0. c #A7925A",
"q. c #A6935A",
"w. c #B09B5F",
"e. c #C88E40",
"r. c #CC9241",
"t. c #CF9342",
"y. c #C99347",
"u. c #CF9544",
"i. c #CE9644",
"p. c #CF9744",
"a. c #C79449",
"s. c #C7974A",
"d. c #CA964A",
"f. c #C8974C",
"g. c #D09645",
"h. c #D29846",
"j. c #D29B47",
"k. c #D49845",
"l. c #D69A47",
"z. c #D79B47",
"x. c #D29C47",
"c. c #D59B48",
"v. c #D09C4E",
"b. c #D99E49",
"n. c #D5A04A",
"m. c #DCA34F",
"M. c #D8A54E",
"N. c #C7A355",
"B. c #CBA051",
"V. c #D9A554",
"C. c #DBAB55",
"Z. c #DAB35D",
"A. c #DEB05F",
"S. c #E1A752",
"D. c #E6AC55",
"F. c #E6AC56",
"G. c #E3AE59",
"H. c #E6AE59",
"J. c #E0B15A",
"K. c #E7B25D",
"L. c #E6B35D",
"P. c #E9B059",
"I. c #EBB35C",
"U. c #EDB55D",
"Y. c #DDB060",
"T. c #E5B460",
"R. c #E4BA60",
"E. c #E6BE64",
"W. c #EEB861",
"Q. c #F3BB61",
"!. c #F1BB62",
"~. c #F3BD64",
"^. c #F2BD66",
"/. c #E5C168",
"(. c #EBC669",
"). c #EAC56A",
"_. c #EBC96E",
"`. c #ECCA6F",
"'. c #F3C068",
"]. c #E0C370",
"[. c #E0C672",
"{. c #EACA70",
"}. c #EECD71",
"|. c #E9CC74",
" X c #F2D478",
".X c #F4D779",
"XX c #F3D77D",
"oX c #F7DD80",
"OX c #F6DC81",
/* pixels */
"            a % % u             ",
"        h U =.=.$.' v y         ",
"      c q.[.|.`./.Z.B.~ q       ",
"    g w.oX.X .3.<._ M.j.^ 2     ",
"  J q.OXOX{.U P B A j.g.g.Q w   ",
"  Y /. X_.5.; 3 7 ; ( g.k.d.1   ",
"C 1.}.).N.+ v 8.,.i , e.k.m.D i ",
"g 2.).E.@.. x Y F r o 7.S.F.] * ",
"3 %.E.J.^ . l W W W T d.H.I.] * ",
"n | C.n.>.O p >.y.4.f.F.P.W.R e ",
"  A d.r.r.! : 6 9 $ @.U.!.Y.1   ",
"  a X.r.j.c.V C J S K.^.'.O.,   ",
"    j :.c.b.H %.%.{ Q.~.9.=     ",
"      g X.v.V.H.K.T.A.O.>       ",
"        n N W ;.;.] v 0         ",
"            M 5 7 x             "
};
