/* XPM */
static char *_315df77510740c2c293c9850c4a9b6d4QmEYvdB3ua8lhvr[] = {
/* columns rows colors chars-per-pixel */
"32 32 187 2 ",
"   c None",
".  c #1D1E1F",
"X  c #20201E",
"o  c #36271C",
"O  c #3F2B1E",
"+  c #1F2022",
"@  c #242525",
"#  c #262728",
"$  c #27292A",
"%  c #2B2C2B",
"&  c #2C2822",
"*  c #3B2D21",
"=  c #3B3125",
"-  c #35342E",
";  c #3B362C",
":  c #2E2E30",
">  c #2F3031",
",  c #333333",
"<  c #3B3935",
"1  c #3E3C38",
"2  c #43301E",
"3  c #432E20",
"4  c #443425",
"5  c #463826",
"6  c #4C3B27",
"7  c #433A2C",
"8  c #4B3D2B",
"9  c #42362B",
"0  c #503E29",
"q  c #513E26",
"w  c #433D31",
"e  c #4B3F30",
"r  c #403F39",
"t  c #4B412D",
"y  c #54452E",
"u  c #5B472C",
"i  c #5C482D",
"p  c #464134",
"a  c #4B4333",
"s  c #43413B",
"d  c #4C463B",
"f  c #4E4A3D",
"g  c #4C4835",
"h  c #544633",
"j  c #594731",
"k  c #544934",
"l  c #5A4B34",
"z  c #554C3A",
"x  c #5A4D3A",
"c  c #56503E",
"v  c #5C523A",
"b  c #70542C",
"n  c #614E38",
"m  c #614E33",
"M  c #635236",
"N  c #64553B",
"B  c #63593D",
"V  c #6A553A",
"C  c #745B35",
"Z  c #795C39",
"A  c #735836",
"S  c #7D643C",
"D  c #76653D",
"F  c #544F40",
"G  c #565443",
"H  c #5C5641",
"J  c #645C44",
"K  c #6A5E43",
"L  c #6C6245",
"P  c #68654C",
"I  c #676449",
"U  c #7C6C44",
"Y  c #71694C",
"T  c #7B6A45",
"R  c #7B734C",
"E  c #77724D",
"W  c #726C52",
"Q  c #7D7550",
"!  c #7E7951",
"~  c #846030",
"^  c #86683E",
"/  c #986E33",
"(  c #9D7238",
")  c #A97736",
"_  c #A07438",
"`  c #AD7E3D",
"'  c #836D43",
"]  c #867247",
"[  c #8B7549",
"{  c #837A4E",
"}  c #867348",
"|  c #9D7B42",
" . c #877E53",
".. c #A37E42",
"X. c #AC7E40",
"o. c #BE8A3F",
"O. c #CA8B36",
"+. c #C48B3E",
"@. c #CD8F3C",
"#. c #C1873A",
"$. c #D08F3B",
"%. c #CB913F",
"&. c #A68245",
"*. c #AD8442",
"=. c #AB8A4C",
"-. c #A8884C",
";. c #B38542",
":. c #BE8D44",
">. c #B48B4A",
",. c #B78D48",
"<. c #B6914A",
"1. c #BB934B",
"2. c #A68C50",
"3. c #AC8C50",
"4. c #AA9254",
"5. c #B49554",
"6. c #BF9650",
"7. c #BE9C54",
"8. c #BDA35B",
"9. c #C28D43",
"0. c #C69245",
"q. c #CD9443",
"w. c #CD9946",
"e. c #C1974F",
"r. c #C8964B",
"t. c #CA9A4E",
"y. c #D29543",
"u. c #D39946",
"i. c #D89B47",
"p. c #D49C49",
"a. c #DA9E4A",
"s. c #C49750",
"d. c #C59950",
"f. c #D6A34D",
"g. c #DBA24D",
"h. c #CCA055",
"j. c #C6A459",
"k. c #CBA55B",
"l. c #CBAA5D",
"z. c #C2A256",
"x. c #D3A454",
"c. c #DBA552",
"v. c #DBAA54",
"b. c #D4AC5B",
"n. c #DCAD5A",
"m. c #D7B05F",
"M. c #DDB25C",
"N. c #E1A751",
"B. c #E3AA54",
"V. c #E9AD56",
"C. c #E3AE59",
"Z. c #E3B45D",
"A. c #EBB35C",
"S. c #E3BA5E",
"D. c #EFB85F",
"F. c #F0B75E",
"G. c #F2B95E",
"H. c #CAAB60",
"J. c #D6B563",
"K. c #DEB863",
"L. c #E2B561",
"P. c #EDB761",
"I. c #E4BC64",
"U. c #EEBA63",
"Y. c #F2BD65",
"T. c #F3BF68",
"R. c #E8C367",
"E. c #E6C168",
"W. c #EAC66A",
"Q. c #ECC96D",
"!. c #E7C164",
"~. c #F4C067",
"^. c #F5C26A",
"/. c #EDCC72",
"(. c #F0CF72",
"). c #EFD175",
"_. c #F1D276",
"`. c #F2D577",
"'. c #F2D275",
"]. c #F3D67D",
"[. c #F2D478",
"{. c #F4D97E",
"}. c #F6D878",
"|. c #F6DD81",
" X c #F8DE82",
".X c #FAE183",
"XX c #FAE489",
/* pixels */
"                              C Z                               ",
"                      l k v ; : % ; j j M                       ",
"                  t c G I L g 8 8 a M l 8 7 k S                 ",
"              j G G v D 2.z.J.K.K.b.6...Z u t k M               ",
"            a P Y } l.`.{..X`.)./.W.W.!.v.1.S l m g             ",
"          7 , N 8.}.XX{.`./.Q.Q.Q.M.M.M.n.M.t.o.k @ w           ",
"        w , z H.{.{..X{.8.v Y m.l.L B <.v.v.w.u.;.h @ p         ",
"      l G z H.XXXX{.`.`.4.> p l.z.r - -.f.u.u.w.u.;.a 8 B       ",
"    A H W 5..XXX|.|./.(.4.> s j.8.1 - &.f.w.y.q.y.u...j 0 R     ",
"    k P [ _. X|.].).Q.Q.2.> < I J < < &.u.q.q.q.q.q.u.S 6 h     ",
"    G K H. X|.(././.W.7.c > , < , , , N 9.q.q.q.y.u.a.<.8 4     ",
"  l F ] /.].(.(.W.E.6.w : > s v H s > % i #.y.y.y.u.a.c.C * N   ",
"  x W 3.[.(./.W.E.b.u @ % N <.w.0.o.g $ # ~ y.y.y.i.i.N.&.2 y   ",
"  J Q j.[.W.E.I.S...@ $ w 1.u.@.O.O.` < @ 5 +.u.i.i.g.B.5.t y   ",
"  F K m././.I.I.Z.b @ @ z >.;.*.o.o.&.a @ & ` g.g.g.C.Z.x.t ; { ",
"Z < x K.I.I.I.I.Z.u @ @ - < 1 s < 1 < % @ @ ( N.B.B.N.N.v.t X R ",
"Z < x M.S.M.M.M.v.u + # - r d d F d p w 7 = ( B.C.C.B.V.v.e X R ",
"  < z b.I.I.M.v.g.b + $ k :.o.:.;.,.r.9.0.0.a.B.B.C.U.P.n.7 & { ",
"  x V d.L.v.x.p.u./ @ $ - ..q.@.$.i.a.u.v.B.B.B.V.V.A.T.k.6 q   ",
"  x N &.n.f.p.u.w.#.0 # % a | 0.p.t.-.V ( B.B.B.A.A.A.Y.2.2 y   ",
"  V z ^ c.x.u.q.%.@.) 7 % > < F H z , % ; r.A.A.A.F.Y.T.D o v   ",
"    h l 9.p.q.q.%.y.u.;.l > , < , , , < S c.P.A.Y.T.^.l.5 * R   ",
"    z h ' y.q.q.u.q.y.u.| , 1 L I < , &.A.A.P.T.T.T.Y.' o g     ",
"    T k V X.q.w.u.u.a.g.| , s t.s.1 , >.P.Y.T.^.^.T.5.5 4 E     ",
"      V V N :.u.i.i.i.a...: r r.s.1 , <.G.G.T.^.T.k.g O v       ",
"        g , x :.y.u.a.a.X.f J x.h.H z e.G.~.G.G.k.x . w         ",
"          s > x ;.a.N.g.c.c.c.Z.A.n.Z.A.Y.^.A.5.k . -           ",
"            d h N [ d.N.V.P.V.A.Y.G.~.~.Y.k.} 8 2 w             ",
"              B l j l ' =.h.n.Z.Z.L.k.5.U t O 5 v               ",
"                R x e 9 0 k l v x z l 6 4 ; g E                 ",
"                    R J l u < % $ % j z B  .                    ",
"                             .! E 2.                            "
};
